<svg xmlns="http://www.w3.org/2000/svg" fill="none" viewBox="0 0 1440 866"><g clip-path="url(#KWzOWzRiz2a)"><circle cx="1290" cy="166" r="203" fill="#8C30F5" opacity=".6"/><circle cx="913" cy="548" r="84" fill="#2EC5CE" opacity=".6"/><g filter="url(#KWzOWzRiz2b)"><path fill="#F2F7FF" fill-opacity=".7" d="M0 0h1440v572L0 752V0z"/></g><path fill="#75E3EA" d="M1260 594.005l420-52.517v64l-420 52.517v-64z"/><path fill="#D6B1FF" d="M828 584.808L1440 508v64l-612 76.808v-64z"/><path fill="#F1E4FF" d="M988 500.517L1408 448v64l-420 52.517v-64z"/><path fill="#75E3EA" d="M0 688.016l420-52.517v64L0 752.016v-64z"/><path fill="#F1E4FF" d="M-152 771.005l420-52.517v64l-420 52.517v-64z"/></g><defs><clipPath id="KWzOWzRiz2a"><path fill="#fff" d="M0 0h1440v866H0z"/></clipPath><filter id="KWzOWzRiz2b" width="1640" height="952" x="-100" y="-100" color-interpolation-filters="sRGB" filterUnits="userSpaceOnUse"><feFlood flood-opacity="0" result="BackgroundImageFix"/><feGaussianBlur in="BackgroundImage" stdDeviation="50"/><feComposite in2="SourceAlpha" operator="in" result="effect1_backgroundBlur"/><feBlend in="SourceGraphic" in2="effect1_backgroundBlur" result="shape"/></filter></defs></svg>