<svg xmlns="http://www.w3.org/2000/svg" fill="none" viewBox="0 0 32 32">
  <path d="M14.754.176L.327 6.916A.56.56 0 00.33 7.935l14.54 6.69c.429.198.925.198 1.354 0l14.54-6.69a.56.56 0 00.003-1.02L16.338.176a1.87 1.87 0 00-1.584 0z" fill="#8C30F5"/>
  <path opacity=".64" d="M30.766 15.568l-2.98-1.392a1.622 1.622 0 00-1.364-.004l-10.199 4.693a1.622 1.622 0 01-1.354 0l-10.2-4.693a1.622 1.622 0 00-1.363.004l-2.98 1.392a.56.56 0 00.003 1.019l14.54 6.689a1.613 1.613 0 001.354 0l14.54-6.69a.56.56 0 00.003-1.018z" fill="#D6B1FF"/>
  <path d="M30.766 24.144l-2.98-1.392a1.622 1.622 0 00-1.364-.004L16.223 27.44a1.62 1.62 0 01-1.354 0l-10.2-4.693a1.62 1.62 0 00-1.363.004l-2.98 1.393a.56.56 0 00.003 1.017l14.54 6.69c.429.198.925.198 1.354 0l14.54-6.69a.56.56 0 00.003-1.017z" fill="#2EC5CE"/>
</svg>
